<svg width="1024" height="1024" viewBox="0 0 1024 1024" version="1.1" xmlns="http://www.w3.org/2000/svg">
    <path d="M900.4 424.87c19.47 0 37.03-11.73 44.49-29.73 7.46-17.98 3.33-38.7-10.43-52.48L713.97 122.19c-7.3-7.3-19.12-7.3-26.42 0l-41.69 41.69c-7.3 7.3-7.3 19.13 0 26.42l138.28 138.27H86.32c-10.19 0-18.46 8.26-18.46 18.46v59.39c0 10.19 8.26 18.46 18.46 18.46H900.4zM937.65 598.72H123.8c-19.47 0-37.03 11.73-44.49 29.73-7.46 17.98-3.33 38.7 10.43 52.48l220.49 220.48c7.3 7.3 19.12 7.3 26.42 0l41.69-41.69c7.3-7.3 7.3-19.13 0-26.42L240.06 695.02h697.59c10.32 0 18.68-8.37 18.68-18.68v-58.93c0-10.32-8.36-18.69-18.68-18.69z"></path>
</svg>