<svg width="1024" height="1024" viewBox="0 0 1024 1024" version="1.1" xmlns="http://www.w3.org/2000/svg">
  <path d="M824.32 0H199.68C89.6 0 0 89.6 0 199.68v624.64c0 110.08 89.6 199.68 199.68 199.68h624.64c110.08 0 199.68-89.6 199.68-199.68V199.68c0-110.08-89.6-199.68-199.68-199.68z m133.632 824.32c0 73.728-59.904 133.632-133.632 133.632H199.68c-73.728 0-133.632-59.904-133.632-133.632V199.68c0-73.728 59.904-133.632 133.632-133.632h624.64c73.728 0 133.632 59.904 133.632 133.632v624.64z m-214.528-442.88c-12.8-12.8-33.792-12.8-46.592 0s-12.8 33.792 0 46.592l50.688 50.688h-167.936c-18.432 0-32.768 14.848-32.768 32.768s14.848 32.768 32.768 32.768H747.52l-50.688 50.688c-12.8 12.8-12.8 33.792 0 46.592 6.656 6.656 14.848 9.728 23.552 9.728s16.896-3.072 23.552-9.728l107.008-107.008c12.8-12.8 12.8-33.792 0-46.592l-107.52-106.496zM443.904 479.232H276.48l50.688-50.688c12.8-12.8 12.8-33.792 0-46.592s-33.792-12.8-46.592 0L173.568 488.96a32.8704 32.8704 0 0 0-9.728 23.552c0 8.704 3.584 16.896 9.728 23.552l107.008 107.008c6.656 6.656 14.848 9.728 23.552 9.728 8.704 0 16.896-3.072 23.552-9.728 12.8-12.8 12.8-33.792 0-46.592l-50.688-50.688h167.936c18.432 0 32.768-14.848 32.768-32.768s-15.36-33.792-33.792-33.792z"></path>
</svg>