<svg width="1024" height="1024" viewBox="0 0 1024 1024" version="1.1" xmlns="http://www.w3.org/2000/svg">
  <path d="M824.32 0H199.68C89.6 0 0 89.6 0 199.68v624.64c0 110.08 89.6 199.68 199.68 199.68h624.64c110.08 0 199.68-89.6 199.68-199.68V199.68c0-110.08-89.6-199.68-199.68-199.68z m133.632 824.32c0 73.728-59.904 133.632-133.632 133.632H199.68c-73.728 0-133.632-59.904-133.632-133.632V199.68c0-73.728 59.904-133.632 133.632-133.632h624.64c73.728 0 133.632 59.904 133.632 133.632v624.64z m-361.984-127.488l-50.688 50.688v-167.936c0-18.432-14.848-32.768-32.768-32.768-18.432 0-32.768 14.848-32.768 32.768V747.52l-50.688-50.688c-12.8-12.8-33.792-12.8-46.592 0-6.656 6.656-9.728 14.848-9.728 23.552 0 8.192 3.072 16.896 9.728 23.552l107.008 107.008c12.8 12.8 33.792 12.8 46.592 0l107.008-107.008c12.8-12.8 12.8-33.792 0-46.592-13.312-13.312-34.304-13.312-47.104-0.512zM535.04 173.568a32.8704 32.8704 0 0 0-23.552-9.728c-8.704 0-16.896 3.584-23.552 9.728L381.44 280.576c-6.656 6.656-9.728 14.848-9.728 23.552 0 8.704 3.072 16.896 9.728 23.552 12.8 12.8 33.792 12.8 46.592 0l50.688-50.688v167.936c0 18.432 14.848 32.768 32.768 32.768 18.432 0 32.768-14.848 32.768-32.768V276.48l50.688 50.688c12.8 12.8 33.792 12.8 46.592 0s12.8-33.792 0-46.592l-106.496-107.008z"></path>
</svg>