<?xml version="1.0" standalone="no"?><!DOCTYPE svg PUBLIC "-//W3C//DTD SVG 1.1//EN"
        "http://www.w3.org/Graphics/SVG/1.1/DTD/svg11.dtd">
<svg t="1763996616387" class="icon" viewBox="0 0 1024 1024" version="1.1" xmlns="http://www.w3.org/2000/svg" p-id="9546"
     xmlns:xlink="http://www.w3.org/1999/xlink" width="200" height="200">
    <path d="M356.992 203.9552a51.2 51.2 0 0 0-99.584-23.8976l-153.6 640a51.2 51.2 0 0 0 99.584 23.8976l153.6-640zM358.4 486.4a38.4 38.4 0 1 0 0 76.8h180.3776l-31.168 31.168a38.4 38.4 0 1 0 54.2976 54.2976l126.72-126.7072-126.72-126.72a38.4 38.4 0 1 0-54.2976 54.3104L544.4608 486.4H358.4z m523.9424-344.1792a51.2 51.2 0 0 1 37.8368 61.7344l-19.2 80a51.2 51.2 0 0 1-99.5712-23.8976l19.2-80a51.2 51.2 0 0 1 61.7344-37.8368z m-57.6 240a51.2 51.2 0 0 1 37.8368 61.7344l-38.4 160a51.2 51.2 0 0 1-99.5712-23.8976l38.4-160a51.2 51.2 0 0 1 61.7344-37.8368z m-76.8 320a51.2 51.2 0 0 1 37.8368 61.7344l-19.2 80a51.2 51.2 0 0 1-99.5712-23.8976l19.2-80a51.2 51.2 0 0 1 61.7344-37.8368z"
          p-id="9547"></path>
</svg>