<svg width="1024" height="1024" viewBox="0 0 1024 1024" version="1.1" xmlns="http://www.w3.org/2000/svg">
  <path d="M224 277.333333a32 32 0 0 0-32 32v384c0 17.664 14.336 32 32 32h576a32 32 0 0 0 32-32V405.333333a32 32 0 0 0-32-32h-320a31.914667 31.914667 0 0 1-22.613333-9.386666L380.16 286.72a32 32 0 0 0-22.698667-9.386667H224zM128 309.333333A96 96 0 0 1 224 213.333333h133.461333c25.472 0 49.92 10.112 67.925334 28.16l67.84 67.84h306.773333A96 96 0 0 1 896 405.333333v288a96 96 0 0 1-96 96H224A96 96 0 0 1 128 693.333333v-384z"></path>
</svg>