<?xml version="1.0" standalone="no"?><!DOCTYPE svg PUBLIC "-//W3C//DTD SVG 1.1//EN" "http://www.w3.org/Graphics/SVG/1.1/DTD/svg11.dtd"><svg t="1755909034540" class="icon" viewBox="0 0 1024 1024" version="1.1" xmlns="http://www.w3.org/2000/svg" p-id="10189" xmlns:xlink="http://www.w3.org/1999/xlink" width="200" height="200"><path d="M186.4 200h-64C76 200 38.4 162.4 38.4 116S76 32 121.6 32h64C232 32 270.4 69.6 270.4 116S232 200 186.4 200z" p-id="10190"></path><path d="M186.4 232h-64C58.4 232 6.4 180 6.4 116S58.4 0 122.4 0h64c64 0 116 52 116 116S249.6 232 186.4 232z m-64-168c-28.8 0-52 23.2-52 52s23.2 52 52 52h64c28.8 0 52-23.2 52-52S214.4 64 186.4 64h-64zM908 1024h-64c-64 0-116-52-116-116S780 792 844 792h64c64 0 116 52 116 116s-52 116-116 116z m-64-168c-28.8 0-52 23.2-52 52s23.2 52 52 52h64c28.8 0 52-23.2 52-52s-23.2-52-52-52h-64z" p-id="10191"></path><path d="M760 946.4H272c-79.2 0-144-61.6-144-136.8V200h64v609.6c0 40 36 72.8 80 72.8h488v64z" p-id="10192"></path><path d="M736 552H160c-17.6 0-32-14.4-32-32s14.4-32 32-32h576c17.6 0 32 14.4 32 32s-14.4 32-32 32zM908 1024h-64c-64 0-116-52-116-116S780 792 844 792h64c64 0 116 52 116 116s-52 116-116 116z m-64-168c-28.8 0-52 23.2-52 52s23.2 52 52 52h64c28.8 0 52-23.2 52-52s-23.2-52-52-52h-64z" p-id="10193"></path><path d="M736 552H160c-17.6 0-32-14.4-32-32s14.4-32 32-32h576c17.6 0 32 14.4 32 32s-14.4 32-32 32zM908 1024h-64c-64 0-116-52-116-116S780 792 844 792h64c64 0 116 52 116 116s-52 116-116 116z m-64-168c-28.8 0-52 23.2-52 52s23.2 52 52 52h64c28.8 0 52-23.2 52-52s-23.2-52-52-52h-64z" p-id="10194"></path><path d="M908 624h-64c-64 0-116-52-116-116S780 392 844 392h64c64 0 116 52 116 116S972 624 908 624z m-64-168c-28.8 0-52 23.2-52 52s23.2 52 52 52h64c28.8 0 52-23.2 52-52s-23.2-52-52-52h-64z" p-id="10195"></path><path d="M736 552H160c-17.6 0-32-14.4-32-32s14.4-32 32-32h576c17.6 0 32 14.4 32 32s-14.4 32-32 32z" p-id="10196"></path></svg>