<?xml version="1.0" standalone="no"?><!DOCTYPE svg PUBLIC "-//W3C//DTD SVG 1.1//EN" "http://www.w3.org/Graphics/SVG/1.1/DTD/svg11.dtd"><svg t="1759029874883" class="icon" viewBox="0 0 1024 1024" version="1.1" xmlns="http://www.w3.org/2000/svg" p-id="9169" xmlns:xlink="http://www.w3.org/1999/xlink" width="200" height="200"><path d="M512 195.047619c150.79619 0 288.280381 92.013714 412.42819 276.041143a73.142857 73.142857 0 0 1 2.755048 77.385143l-2.755048 4.437333-6.92419 10.118095C795.184762 740.303238 659.992381 828.952381 512 828.952381c-150.79619 0-288.280381-92.013714-412.42819-276.041143a73.142857 73.142857 0 0 1-2.755048-77.385143l2.755048-4.437333 6.92419-10.118095C228.815238 283.696762 364.007619 195.047619 512 195.047619z m0 73.142857c-120.880762 0-235.471238 75.142095-345.088 234.008381L160.207238 512l6.729143 9.825524C276.650667 680.740571 391.216762 755.809524 512 755.809524c120.880762 0 235.471238-75.142095 345.088-234.008381l6.704762-9.801143-6.729143-9.825524C747.349333 343.259429 632.783238 268.190476 512 268.190476z m0 88.551619a161.694476 161.694476 0 1 1 0 323.364572 161.694476 161.694476 0 0 1 0-323.364572z m0 73.142857a88.551619 88.551619 0 1 0 0 177.078858 88.551619 88.551619 0 0 0 0-177.078858z" p-id="9170"></path></svg>