<?xml version="1.0" standalone="no"?><!DOCTYPE svg PUBLIC "-//W3C//DTD SVG 1.1//EN" "http://www.w3.org/Graphics/SVG/1.1/DTD/svg11.dtd"><svg t="1756624298360" class="icon" viewBox="0 0 1024 1024" version="1.1" xmlns="http://www.w3.org/2000/svg" p-id="27669" xmlns:xlink="http://www.w3.org/1999/xlink" width="200" height="200"><path d="M488.106667 360.533333a108.373333 108.373333 0 0 0 79.36-33.28 110.08 110.08 0 0 0 32.853333-79.786666 109.226667 109.226667 0 0 0-32.853333-79.786667 111.786667 111.786667 0 0 0-159.146667 0A109.226667 109.226667 0 0 0 375.466667 247.466667a110.08 110.08 0 0 0 32.853333 79.786666 108.8 108.8 0 0 0 79.786667 33.28z m0-64a42.666667 42.666667 0 0 1-49.066667-49.066666 48.64 48.64 0 0 1 49.066667-49.066667 42.666667 42.666667 0 0 1 48.64 49.066667A42.666667 42.666667 0 0 1 488.106667 298.666667zM86.613333 738.56z" fill="#333333" p-id="27670"></path><path d="M140.8 773.12h733.44a64.426667 64.426667 0 0 0 57.6-31.573333 63.146667 63.146667 0 0 0 3.413333-65.28l-173.653333-352.853334a63.573333 63.573333 0 0 0-52.48-37.12 64.426667 64.426667 0 0 0-60.16 23.04L469.333333 519.253333 421.546667 422.826667a55.893333 55.893333 0 0 0-46.08-32.853334 56.746667 56.746667 0 0 0-52.906667 20.48l-227.413333 264.96A55.04 55.04 0 0 0 85.333333 738.56a55.466667 55.466667 0 0 0 55.466667 34.56zM341.333333 666.88v3.413333l-2.133333 4.266667v9.386667a12.8 12.8 0 0 0 0 4.266666v5.546667H162.56l203.093333-236.8 54.186667 110.08-72.96 85.333333z m357.12-310.186667l170.666667 346.88h-469.333333l85.333333-99.413333zM932.693333 830.293333a34.986667 34.986667 0 0 0-24.746666-9.813333H116.48a34.56 34.56 0 1 0 0 69.12h791.466667a30.72 30.72 0 0 0 34.986666-36.266667 33.28 33.28 0 0 0-10.24-23.04z" fill="#333333" p-id="27671"></path></svg>