<svg t="1768763647384" class="icon" viewBox="0 0 1024 1024" version="1.1" xmlns="http://www.w3.org/2000/svg" p-id="6645">
    <path d="M817.728 782.176A406.464 406.464 0 0 0 920 512c0-225.344-182.656-408-408-408S104 286.656 104 512 286.656 920 512 920c29.216 0 146.528-1.28 352.32-3.904a24 24 0 0 0 15.872-41.696l-80.16-73.408c6.08-6.08 12-12.352 17.696-18.816zM512 872C313.184 872 152 710.816 152 512S313.184 152 512 152 872 313.184 872 512c0 89.056-32.416 173.024-90.24 238.4-10.24 11.584-21.248 22.496-32.896 32.704a24 24 0 0 0-0.384 35.776l54.592 49.984c-168 2.08-265.12 3.136-291.072 3.136z" fill="currentColor" stroke="currentColor" stroke-width="20" stroke-linejoin="round" p-id="6646"></path>
    <path d="M546.976 582.656c-3.072 14.24-23.392 116.096 43.808 58.048 0 0 33.056-22.368-14.784 29.024-47.84 51.456-108.992 67.712-116.096 29.024a1119.04 1119.04 0 0 1 29.024-174.592c1.504-13.216-14.784 0-14.784 0s-47.328 33.6-58.048 14.752c-1.504-3.072 14.784-14.752 14.784-14.752s98.752-72.832 130.88-58.048c32 14.688-11.712 102.272-14.784 116.544z m50.176-183.904a50.88 50.88 0 1 1-85.28-55.68 50.88 50.88 0 1 1 85.28 55.68z" fill="currentColor" stroke="currentColor" stroke-width="20" stroke-linejoin="round" p-id="6647"></path>
</svg>