<?xml version="1.0" standalone="no"?><!DOCTYPE svg PUBLIC "-//W3C//DTD SVG 1.1//EN" "http://www.w3.org/Graphics/SVG/1.1/DTD/svg11.dtd"><svg t="1756016029788" class="icon" viewBox="0 0 1024 1024" version="1.1" xmlns="http://www.w3.org/2000/svg" p-id="8906" xmlns:xlink="http://www.w3.org/1999/xlink" width="200" height="200"><path d="M511.984367 1024C229.223981 1024 0.007817 794.768202 0.007817 511.992183S229.223981 0.015633 511.984367 0.015633 1023.992183 229.231798 1023.992183 511.992183 794.744752 1024 511.984367 1024z m0.922367-945.489321C273.028626 78.510679 78.565396 272.801942 78.565396 512.461184s194.478863 433.966138 434.356972 433.966138S947.248073 752.136059 947.248073 512.461184 752.784843 78.510679 512.922368 78.510679z m174.374376 473.596678H338.547992a39.646173 39.646173 0 1 1 0-79.292347h348.733118a39.646173 39.646173 0 1 1 0 79.292347z" fill="#f4503b" p-id="8907"></path></svg>