<?xml version="1.0" standalone="no"?><!DOCTYPE svg PUBLIC "-//W3C//DTD SVG 1.1//EN" "http://www.w3.org/Graphics/SVG/1.1/DTD/svg11.dtd"><svg t="1767752661059" class="icon" viewBox="0 0 1024 1024" version="1.1" xmlns="http://www.w3.org/2000/svg" p-id="7631" data-darkreader-inline-fill="" xmlns:xlink="http://www.w3.org/1999/xlink" width="200" height="200"><path d="M898.816 860.842667c25.429333 0 46.08 21.674667 46.08 48.384 0 24.746667-17.834667 45.226667-40.704 47.957333l-5.376 0.341333H125.184a47.189333 47.189333 0 0 1-46.08-48.298666c0-24.746667 17.834667-45.226667 40.704-48.042667l5.376-0.341333h773.632zM593.066667 80.64a48.298667 48.298667 0 0 1 68.352 0l170.922666 170.922667a48.298667 48.298667 0 0 1 0 68.266666L388.010667 764.330667a48.298667 48.298667 0 0 1-39.509334 13.909333l-153.856-17.066667a48.298667 48.298667 0 0 1-42.666666-42.752l-17.066667-153.856a48.298667 48.298667 0 0 1 13.824-39.509333z m34.133333 102.485333L233.557333 576.938667l10.24 92.245333 92.330667 10.24 393.728-393.728-102.485333-102.570667z" fill="#B2B7C0" p-id="7632" data-darkreader-inline-fill="" style="--darkreader-inline-fill: #404546;"></path></svg>