<?xml version="1.0" encoding="UTF-8"?>
<svg id="_图层_1" xmlns="http://www.w3.org/2000/svg" version="1.1" viewBox="0 0 1024 1024">
  <!-- Generator: Adobe Illustrator 29.6.1, SVG Export Plug-In . SVG Version: 2.1.1 Build 9)  -->
  <path d="M824.32,0H199.68C89.6,0,0,89.6,0,199.68v624.64c0,110.08,89.6,199.68,199.68,199.68h624.64c110.08,0,199.68-89.6,199.68-199.68V199.68C1024,89.6,934.4,0,824.32,0ZM957.95,824.32c0,73.73-59.9,133.63-133.63,133.63H199.68c-73.73,0-133.63-59.9-133.63-133.63V199.68c0-73.73,59.9-133.63,133.63-133.63h624.64c73.73,0,133.63,59.9,133.63,133.63v624.64Z"/>
  <path d="M207.46,365.36h2.55c20.31,0,36.84-16.4,36.84-36.53v-68.44c0-7.76,6.36-13.95,14.05-13.95h107.02c20.31,0,36.84-16.4,36.84-36.53v-2.55c0-20.14-16.53-36.53-36.84-36.53h-136.78c-33.37-.03-60.48,26.87-60.48,60.01v98c0,20.14,16.53,36.53,36.84,36.53h-.03ZM207.49,658.97c-20.31,0-36.84,16.4-36.84,36.53v98c0,33.1,27.11,60.01,60.48,60.01h136.85c20.31,0,36.84-16.4,36.84-36.53v-2.55c0-20.14-16.53-36.53-36.84-36.53h-107.49c-7.59,0-13.84-5.99-14.05-13.5l-2.11-70.11c-.78-19.7-17.08-35.31-36.84-35.31h0ZM813.92,365.03h2.55c20.31,0,36.84-16.4,36.84-36.53v-98c0-33.1-27.11-60.01-60.48-60.01h-136.85c-20.31,0-36.84,16.4-36.84,36.53v2.55c0,20.14,16.53,36.53,36.84,36.53h107.02c7.82,0,14.05,6.33,14.05,13.95v68.44c0,20.14,16.53,36.53,36.84,36.53h.03ZM853.31,777.89v-82.39c0-20.14-16.53-36.53-36.84-36.53h-2.55c-20.31,0-36.84,16.4-36.84,36.53v68.44c0,7.76-6.36,13.95-14.05,13.95h-107.02c-20.31,0-36.84,16.4-36.84,36.53v2.55c0,20.14,16.53,36.53,36.84,36.53h136.85c33.37,0,60.48-26.91,60.48-60.01v-15.61h-.03Z"/>
</svg>