<?xml version="1.0" encoding="UTF-8"?>
<svg id="_图层_1" data-name="图层_1" xmlns="http://www.w3.org/2000/svg" version="1.1" viewBox="0 0 1024 1024">
  <!-- Generator: Adobe Illustrator 29.6.1, SVG Export Plug-In . SVG Version: 2.1.1 Build 9)  -->
  <defs>
    <style>
      .st0 {
        isolation: isolate;
        opacity: .6;
      }
    </style>
  </defs>
  <path d="M51.2,243.2v-89.95c0-56.36,45.69-102.05,102.05-102.05h89.95c21.21,0,38.4,17.19,38.4,38.4h0c0,21.21-17.19,38.4-38.4,38.4h-76.8c-21.21,0-38.4,17.19-38.4,38.4v76.8c0,21.21-17.19,38.4-38.4,38.4h0c-21.21,0-38.4-17.19-38.4-38.4Z"/>
  <path d="M972.8,243.2v-89.95c0-56.36-45.69-102.05-102.05-102.05h-89.95c-21.21,0-38.4,17.19-38.4,38.4h0c0,21.21,17.19,38.4,38.4,38.4h76.8c21.21,0,38.4,17.19,38.4,38.4v76.8c0,21.21,17.19,38.4,38.4,38.4h0c21.21,0,38.4-17.19,38.4-38.4Z"/>
  <path d="M51.2,780.8v89.95c0,56.36,45.69,102.05,102.05,102.05h89.95c21.21,0,38.4-17.19,38.4-38.4h0c0-21.21-17.19-38.4-38.4-38.4h-76.8c-21.21,0-38.4-17.19-38.4-38.4v-76.8c0-21.21-17.19-38.4-38.4-38.4h0c-21.21,0-38.4,17.19-38.4,38.4Z"/>
  <path d="M972.8,780.8v89.95c0,56.36-45.69,102.05-102.05,102.05h-89.95c-21.21,0-38.4-17.19-38.4-38.4h0c0-21.21,17.19-38.4,38.4-38.4h76.8c21.21,0,38.4-17.19,38.4-38.4v-76.8c0-21.21,17.19-38.4,38.4-38.4h0c21.21,0,38.4,17.19,38.4,38.4Z"/>
  <path class="st0" d="M437.04,352h149.92c46.97,0,85.04,38.07,85.04,85.04v149.92c0,46.97-38.07,85.04-85.04,85.04h-149.92c-46.97,0-85.04-38.07-85.04-85.04v-149.92c0-46.97,38.07-85.04,85.04-85.04Z"/>
</svg>