<?xml version="1.0" encoding="UTF-8"?>
<svg id="_图层_1" data-name="图层_1" xmlns="http://www.w3.org/2000/svg" version="1.1" viewBox="0 0 1024 1024">
  <!-- Generator: Adobe Illustrator 29.6.1, SVG Export Plug-In . SVG Version: 2.1.1 Build 9)  -->
  <path d="M824.32,0H199.68C89.6,0,0,89.6,0,199.68v624.64c0,110.08,89.6,199.68,199.68,199.68h624.64c110.08,0,199.68-89.6,199.68-199.68V199.68C1024,89.6,934.4,0,824.32,0ZM957.95,824.32c0,73.73-59.9,133.63-133.63,133.63H199.68c-73.73,0-133.63-59.9-133.63-133.63V199.68c0-73.73,59.9-133.63,133.63-133.63h624.64c73.73,0,133.63,59.9,133.63,133.63v624.64Z"/>
  <path d="M742.46,381.12c-12.8-12.8-33.79-12.8-46.59,0s-12.8,33.79,0,46.59l50.69,50.69h-167.94c-18.43,0-32.77,14.85-32.77,32.77s14.85,32.77,32.77,32.77h167.94l-50.69,50.69c-12.8,12.8-12.8,33.79,0,46.59,6.66,6.66,14.85,9.73,23.55,9.73s16.9-3.07,23.55-9.73l107.01-107.01c12.8-12.8,12.8-33.79,0-46.59l-107.52-106.5h0Z"/>
  <path d="M442.94,478.91h-167.42l50.69-50.69c12.8-12.8,12.8-33.79,0-46.59s-33.79-12.8-46.59,0l-107.01,107.01c-6.28,6.22-9.78,14.71-9.73,23.55,0,8.7,3.58,16.9,9.73,23.55l107.01,107.01c6.66,6.66,14.85,9.73,23.55,9.73s16.9-3.07,23.55-9.73c12.8-12.8,12.8-33.79,0-46.59l-50.69-50.69h167.94c18.43,0,32.77-14.85,32.77-32.77s-15.36-33.79-33.79-33.79h0Z"/>
  <path d="M595.78,696.64l-50.69,50.69v-167.94c0-18.43-14.85-32.77-32.77-32.77s-32.77,14.85-32.77,32.77v167.94l-50.69-50.69c-12.8-12.8-33.79-12.8-46.59,0-6.66,6.66-9.73,14.85-9.73,23.55,0,8.19,3.07,16.9,9.73,23.55l107.01,107.01c12.8,12.8,33.79,12.8,46.59,0l107.01-107.01c12.8-12.8,12.8-33.79,0-46.59s-34.3-13.31-47.1-.51Z"/>
  <path d="M534.85,173.38c-6.22-6.28-14.71-9.78-23.55-9.73-8.7,0-16.9,3.58-23.55,9.73l-106.5,107.01c-6.66,6.66-9.73,14.85-9.73,23.55s3.07,16.9,9.73,23.55c12.8,12.8,33.79,12.8,46.59,0l50.69-50.69v167.94c0,18.43,14.85,32.77,32.77,32.77s32.77-14.85,32.77-32.77v-168.45l50.69,50.69c12.8,12.8,33.79,12.8,46.59,0s12.8-33.79,0-46.59l-106.5-107.01h0Z"/>
</svg>