<?xml version="1.0" standalone="no"?><!DOCTYPE svg PUBLIC "-//W3C//DTD SVG 1.1//EN" "http://www.w3.org/Graphics/SVG/1.1/DTD/svg11.dtd"><svg t="1764586555029" class="icon" viewBox="0 0 1024 1024" version="1.1" xmlns="http://www.w3.org/2000/svg" p-id="14255" xmlns:xlink="http://www.w3.org/1999/xlink" width="200" height="200"><path d="M808.562 336.1l85.618-85.561a28.444 28.444 0 0 0 3.242-36.295l-3.242-3.983-80.498-80.44a28.444 28.444 0 0 0-36.295-3.243l-3.926 3.242-85.39 85.448 117.76 117.76a43.236 43.236 0 0 1 2.73 3.072z m-60.018 60.017a43.236 43.236 0 0 1-3.072-2.787l-117.76-117.76L129.82 773.46a28.444 28.444 0 0 0-3.242 36.295l3.242 3.983 80.498 80.44a28.444 28.444 0 0 0 36.295 3.243l3.926-3.242 498.005-498.063zM954.482 149.96a113.778 113.778 0 0 1 0 160.882L310.84 954.48a113.778 113.778 0 0 1-160.882 0l-80.44-80.44a113.778 113.778 0 0 1 0-160.882l643.64-643.64a113.778 113.778 0 0 1 160.882 0l80.44 80.44z m-670.038 20.708l-73.557-40.22 73.557-40.221 40.22-73.558 40.221 73.558 73.558 40.22-73.558 40.22-40.22 73.558-40.22-73.557zM133.916 378.084L97.11 358.002l36.807-20.139 20.082-36.75 20.139 36.75 36.75 20.139-36.75 20.082-20.139 36.807-20.082-36.807z m602.17 478.72l-110.308-60.36 110.364-60.302 60.302-110.364 60.303 110.364 110.364 60.302-110.364 60.303-60.303 110.364-60.302-110.364z" fill="#383C42" p-id="14256"></path></svg>