<svg width="1024" height="1024" viewBox="0 0 1024 1024" version="1.1" xmlns="http://www.w3.org/2000/svg">
  <path d="M824.32,0H199.68C89.6,0,0,89.6,0,199.68v624.64c0,110.08,89.6,199.68,199.68,199.68h624.64c110.08,0,199.68-89.6,199.68-199.68V199.68C1024,89.6,934.4,0,824.32,0ZM957.95,824.32c0,73.73-59.9,133.63-133.63,133.63H199.68c-73.73,0-133.63-59.9-133.63-133.63V199.68c0-73.73,59.9-133.63,133.63-133.63h624.64c73.73,0,133.63,59.9,133.63,133.63v624.64Z"/>
  <path d="M332,382 H 692 A 20,20 0 0 1 712,402 V 462 A 20,20 0 0 1 692,482 H 332 A 20,20 0 0 1 312,462 V 402 A 20,20 0 0 1 332,382 Z"/>
  <path d="M332,542 H 692 A 20,20 0 0 1 712,562 V 622 A 20,20 0 0 1 692,642 H 332 A 20,20 0 0 1 312,622 V 562 A 20,20 0 0 1 332,542 Z"/>
</svg>