<svg viewBox="0 0 1024 1024" version="1.1" xmlns="http://www.w3.org/2000/svg" fill="currentColor">
  <path d="M89.6 166.4a76.8 76.8 0 0 1 76.8-76.8h307.2a76.8 76.8 0 0 1 76.8 76.8v204.8A76.8 76.8 0 0 1 473.6 448H166.4a76.8 76.8 0 0 1-76.8-76.8V166.4z m384 0H166.4v204.8h307.2V166.4zM89.6 652.8A76.8 76.8 0 0 1 166.4 576h204.8A76.8 76.8 0 0 1 448 652.8v204.8a76.8 76.8 0 0 1-76.8 76.8H166.4a76.8 76.8 0 0 1-76.8-76.8v-204.8z m281.6 0H166.4v204.8h204.8v-204.8zM857.6 294.4H550.4V217.6h307.2a76.8 76.8 0 0 1 76.8 76.8v435.2a76.8 76.8 0 0 1-76.8 76.8H616v-76.8H857.6V294.4z"></path>
  <path d="M617.536 766.144l100.544-98.752a38.4 38.4 0 0 0-53.76-54.784l-117.12 114.88a53.76 53.76 0 0 0-0.64 76.032l117.248 119.424a38.4 38.4 0 0 0 54.784-53.824l-101.12-102.976z"></path>
</svg>