<svg t="1764612272283" class="icon" viewBox="0 0 1024 1024" version="1.1" xmlns="http://www.w3.org/2000/svg" p-id="15661" width="200" height="200"><path d="M281.676266 461.155909l-14.744786-14.744787a50.844091 50.844091 0 0 1 71.690168-72.19861l107.789474 107.789474a50.844091 50.844091 0 0 1 0 71.690169L338.621648 660.973188a50.844091 50.844091 0 1 1-71.690168-71.690169l27.455809-27.455809H156.09136a50.844091 50.844091 0 0 1 0-101.688183z m586.740814-305.064549a50.844091 50.844091 0 0 1 0 101.688183h-711.817279a50.844091 50.844091 0 0 1 0-101.688183z m0 610.129097a50.844091 50.844091 0 0 1 0 101.688183h-711.817279a50.844091 50.844091 0 0 1 0-101.688183z m0-305.064548a50.844091 50.844091 0 0 1 0 101.688182h-305.064548a50.844091 50.844091 0 0 1 0-101.688182z" fill="#666666" p-id="15662"></path></svg>