<svg viewBox="0 0 1024 1024" version="1.1" xmlns="http://www.w3.org/2000/svg"
     width="200" height="200">
    <path d="M128 96a32 32 0 0 0 0 64h32v192H128a32 32 0 0 0 0 64h128a32 32 0 0 0 0-64h-32V140.8a44.8 44.8 0 0 0-44.8-44.8H128zM437.312 256a32 32 0 0 1 32-32H896a32 32 0 0 1 0 64H469.312a32 32 0 0 1-32-32zM437.312 512a32 32 0 0 1 32-32H896a32 32 0 0 1 0 64H469.312a32 32 0 0 1-32-32zM469.312 736a32 32 0 0 0 0 64H896a32 32 0 0 0 0-64H469.312zM208.576 672.384A126.976 126.976 0 0 0 192 672H128a32 32 0 0 1 0-64h66.304c9.536 0 18.56 0 26.752 1.6a83.2 83.2 0 0 1 65.344 65.344c1.6 8.192 1.6 17.216 1.6 26.752v4.672c0 9.472 0 18.56-1.6 26.688a83.2 83.2 0 0 1-65.344 65.344 139.52 139.52 0 0 1-26.688 1.6H192c-13.44 0-15.488 0.128-16.576 0.384a19.2 19.2 0 0 0-15.04 15.104A128.128 128.128 0 0 0 160 832v32H256a32 32 0 0 1 0 64H152.512c-4.992 0-11.52 0-17.28-0.768a44.48 44.48 0 0 1-26.112-12.352 44.48 44.48 0 0 1-12.352-26.176 134.016 134.016 0 0 1-0.768-17.216v-41.856c0-9.472 0-18.56 1.6-26.688a83.2 83.2 0 0 1 65.344-65.344c8.192-1.6 17.216-1.6 26.752-1.6H192c13.44 0 15.488-0.128 16.576-0.384a19.2 19.2 0 0 0 15.04-15.104c0.256-1.024 0.384-3.072 0.384-16.512 0-13.44-0.128-15.488-0.384-16.512a19.2 19.2 0 0 0-15.04-15.104z"
          fill="#333333" ></path>
</svg>