<?xml version="1.0" standalone="no"?><!DOCTYPE svg PUBLIC "-//W3C//DTD SVG 1.1//EN" "http://www.w3.org/Graphics/SVG/1.1/DTD/svg11.dtd"><svg t="1765709916529" class="icon" viewBox="0 0 1024 1024" version="1.1" xmlns="http://www.w3.org/2000/svg" p-id="5251" xmlns:xlink="http://www.w3.org/1999/xlink" width="200" height="200"><path d="M946.432 167.68a35.84 35.84 0 0 1 12.288 49.152l-76.8 128a35.84 35.84 0 0 1-66.56-18.432v-38.4A149.76 149.76 0 0 0 665.6 138.24a35.84 35.84 0 1 1 0-71.68c97.28 0 179.968 62.7712 209.664 150.016l22.016-36.608a35.84 35.84 0 0 1 49.152-12.288zM66.56 204.8A87.04 87.04 0 0 1 153.6 117.76h358.4A87.04 87.04 0 0 1 599.04 204.8v102.4a35.84 35.84 0 1 1-71.68 0V204.8a15.36 15.36 0 0 0-15.36-15.36H153.6a15.36 15.36 0 0 0-15.36 15.36v563.2a15.36 15.36 0 0 0 15.36 15.36h25.6a35.84 35.84 0 1 1 0 71.68H153.6A87.04 87.04 0 0 1 66.56 768V204.8z" p-id="5252"></path><path d="M384 906.24A87.04 87.04 0 0 1 296.96 819.2v-307.2a87.04 87.04 0 0 1 87.04-87.04H870.4a87.04 87.04 0 0 1 87.04 87.04v307.2a87.04 87.04 0 0 1-87.04 87.04H384zM368.64 819.2a15.36 15.36 0 0 0 15.36 15.36H870.4a15.36 15.36 0 0 0 15.36-15.36v-307.2a15.36 15.36 0 0 0-15.36-15.36H384a15.36 15.36 0 0 0-15.36 15.36v307.2z" p-id="5253"></path></svg>