<?xml version="1.0" encoding="UTF-8"?>
<svg id="_图层_1" xmlns="http://www.w3.org/2000/svg" version="1.1" viewBox="0 0 198.43 198.43">
  <!-- Generator: Adobe Illustrator 29.6.1, SVG Export Plug-In . SVG Version: 2.1.1 Build 9)  -->
  <path d="M95.85,144.35c-27.61,0-49.98-22.38-49.98-49.98s22.38-49.98,49.98-49.98,49.98,22.38,49.98,49.98h0c0,27.61-22.38,49.98-49.98,49.98h0ZM95.85,63.13c-17.25,0-31.24,13.99-31.24,31.24s13.99,31.24,31.24,31.24,31.24-13.99,31.24-31.24-13.99-31.24-31.24-31.24h0Z"/>
  <path d="M114.56,126.3l13.25-13.26,36.01,36.01-13.25,13.25s-36.01-36-36.01-36Z"/>
  <path d="M10.7,56.54h.74c5.9,0,10.71-4.77,10.71-10.62v-19.89c0-2.25,1.85-4.05,4.08-4.05h31.1c5.9,0,10.71-4.77,10.71-10.62v-.74C68.04,4.77,63.24,0,57.33,0H17.58C7.88,0,0,7.81,0,17.44v28.48c0,5.85,4.81,10.62,10.71,10.62h0ZM10.71,141.88c-5.9,0-10.71,4.77-10.71,10.62v28.48c0,9.62,7.88,17.44,17.58,17.44h39.78c5.9,0,10.71-4.77,10.71-10.62v-.74c0-5.85-4.81-10.62-10.71-10.62h-31.24c-2.2,0-4.02-1.74-4.08-3.93l-.61-20.38c-.23-5.72-4.96-10.26-10.71-10.26h0ZM186.97,56.45h.74c5.9,0,10.71-4.77,10.71-10.62v-28.48C198.42,7.72,190.54-.1,180.84-.1h-39.78c-5.9,0-10.71,4.77-10.71,10.62v.74c0,5.85,4.81,10.62,10.71,10.62h31.1c2.27,0,4.08,1.84,4.08,4.05v19.89c0,5.85,4.81,10.62,10.71,10.62h0ZM198.42,176.45v-23.95c0-5.85-4.81-10.62-10.71-10.62h-.74c-5.9,0-10.71,4.77-10.71,10.62v19.89c0,2.25-1.85,4.05-4.08,4.05h-31.1c-5.9,0-10.71,4.77-10.71,10.62v.74c0,5.85,4.81,10.62,10.71,10.62h39.78c9.7,0,17.58-7.82,17.58-17.44v-4.54h0Z"/>
</svg>