<svg width="1024" height="1024" viewBox="0 0 1024 1024" version="1.1" xmlns="http://www.w3.org/2000/svg">
  <path d="M0 133.632v756.736C0 964.096 59.904 1024 133.632 1024h756.736c73.728 0 133.632-59.904 133.632-133.632V133.632C1024 59.904 964.096 0 890.368 0H133.632C59.904 0 0 59.904 0 133.632z m74.752 705.536V184.832c0-60.928 49.152-110.08 110.08-110.08h654.336c60.928 0 110.08 49.152 110.08 110.08v654.336c0 60.928-49.152 110.08-110.08 110.08H184.832c-60.928 0-110.08-49.152-110.08-110.08z M218.112 457.216V387.072c31.744-14.848 61.952-31.744 90.112-52.224h72.192v353.792H302.08V411.136c-25.6 18.432-53.248 33.792-83.968 46.08zM558.08 499.2H492.032V431.104H558.08v68.096z m0 189.952H492.032v-68.096H558.08v68.096zM644.096 457.216V387.072c31.744-14.848 61.952-31.744 90.112-52.224h72.192v353.792h-77.824V411.136c-26.112 18.432-53.76 33.792-84.48 46.08z"></path>
</svg>