<?xml version="1.0" standalone="no"?><!DOCTYPE svg PUBLIC "-//W3C//DTD SVG 1.1//EN" "http://www.w3.org/Graphics/SVG/1.1/DTD/svg11.dtd"><svg t="1755934452447" class="icon" viewBox="0 0 1024 1024" version="1.1" xmlns="http://www.w3.org/2000/svg" p-id="13500" xmlns:xlink="http://www.w3.org/1999/xlink" width="200" height="200"><path d="M219.721143 972.068571c22.272 0 35.126857-11.154286 78.427428-54.418285L506.002286 710.217143c2.139429-1.718857 4.278857-3.437714 5.997714-3.437714 2.139429 0 3.84 1.718857 5.997714 3.437714l208.274286 207.433143c42.441143 42.422857 56.155429 54.418286 78.006857 54.418285 27.008 0 47.579429-16.274286 47.579429-55.277714V186.075429c0-89.142857-44.141714-134.144-132.864-134.144H305.005714c-88.283429 0-132.864 44.982857-132.864 134.144v730.697142c0 39.021714 21.010286 55.296 47.579429 55.296z m32.128-104.137142c-5.997714 5.997714-10.697143 4.278857-10.697143-3.858286V187.355429c0-42.861714 23.131429-66.432 67.712-66.432h406.710857c44.562286 0 67.291429 23.588571 67.291429 66.432v676.717714c0 8.137143-4.717714 9.435429-10.733715 3.84L533.430857 631.808c-7.296-7.716571-14.994286-9.874286-21.430857-9.874286-5.997714 0-13.714286 2.157714-21.430857 9.874286z" p-id="13501"></path></svg>