<svg width="1024" height="1024" viewBox="0 0 1024 1024" version="1.1" xmlns="http://www.w3.org/2000/svg">
  <path d="M367.36 42.666667c17.6 0 34.901333 7.189333 46.165333 19.2 15.04 15.978667 62.528 57.429333 101.056 57.429333 35.157333 0 78.08-34.624 96.298667-52.266667l6.933333-6.890666c11.136-10.069333 26.88-16 42.901334-16 8.448 0 16.426667 1.621333 23.722666 4.821333l1.28 0.554667 122.709334 69.056 1.194666 0.853333c21.930667 15.509333 30.293333 45.930667 19.413334 70.698667-0.064 0.192-11.093333 25.941333-11.093334 49.408 0 71.253333 57.258667 129.258667 127.573334 129.258666h4.330666c20.416-0.469333 37.248 17.749333 42.517334 46.165334l3.2 19.093333c3.029333 19.754667 7.104 51.392 7.104 78.378667 0 35.925333-7.253333 80.170667-9.6 93.504l-1.578667 8.106666c-6.08 25.984-22.250667 42.346667-41.706667 42.005334h-4.266666c-70.314667 0-127.573333 57.941333-127.573334 129.194666 0 18.517333 6.869333 38.485333 9.813334 46.208l2.752 6.848c8.597333 23.978667 0 52.288-20.949334 67.072l-1.194666 0.853334-124.757334 69.866666-1.322666 0.533334c-7.125333 3.114667-14.976 4.714667-23.189334 4.714666-17.834667 0-35.2-7.509333-46.4-19.989333-15.274667-16.981333-63.68-61.098667-103.253333-61.098667-36.458667 0-81.28 38.037333-98.88 55.978667l-3.669333 3.904c-11.2 12.352-28.458667 19.669333-46.122667 19.669333-8.384 0-16.362667-1.578667-23.594667-4.885333l-1.28-0.490667-120.384-68.202666-1.194666-0.853334c-21.909333-15.509333-30.250667-45.952-19.413334-70.698666l2.688-6.954667c3.306667-9.28 8.469333-26.432 8.469334-42.474667 0-71.253333-57.258667-129.194667-127.637334-129.194666H73.386667c-20.138667 0-36.544-18.133333-41.813334-46.208-0.426667-2.261333-10.24-55.466667-10.24-97.408l0.042667-4.544c0.576-36.608 7.872-79.829333 9.770667-90.517334l1.322666-6.613333c6.122667-25.984 22.229333-42.432 41.685334-41.962667h4.266666c70.378667 0 127.637333-58.005333 127.637334-129.258666 0-17.28-5.973333-35.84-9.173334-44.48l-3.392-8.554667c-8.597333-24.042667 0-52.288 20.949334-67.050667l1.258666-0.874666 127.04-70.677334 1.301334-0.576A58.496 58.496 0 0 1 367.36 42.666667z m0.768 64.341333..."></path>
</svg>