<svg width="1024" height="1024" viewBox="0 0 1024 1024" version="1.1" xmlns="http://www.w3.org/2000/svg">
  <path d="M863.079412 351.09129a29.2569 29.2569 0 0 1 58.5138 0v555.881108a117.027602 117.027602 0 0 1-117.027601 117.027602H219.427602a117.027602 117.027602 0 0 1-117.027602-117.027602V146.292987a117.027602 117.027602 0 0 1 117.027602-117.027602h380.339706a29.2569 29.2569 0 0 1 0 58.513801H219.427602a58.513801 58.513801 0 0 0-58.513801 58.513801v760.679411a58.513801 58.513801 0 0 0 58.513801 58.513801h585.138009a58.513801 58.513801 0 0 0 58.513801-58.513801V351.09129zM855.414104 10.306913a29.2569 29.2569 0 1 1 44.587516 37.916943l-248.683654 292.569005a29.2569 29.2569 0 1 1-44.587516-37.916943l248.683654-292.569005zM307.198303 526.632692h263.312104a29.2569 29.2569 0 0 1 0 58.513801H307.198303a29.2569 29.2569 0 0 1 0-58.513801z m0 175.541403h409.596606a29.2569 29.2569 0 0 1 0 58.513801H307.198303a29.2569 29.2569 0 0 1 0-58.513801z"></path>
</svg>