<?xml version="1.0" encoding="UTF-8"?>
<!-- Generated by Pixelmator Pro 3.6.17 -->
<svg width="118" height="143" viewBox="0 0 118 143" xmlns="http://www.w3.org/2000/svg">
    <path id="path1" fill="#7c7781" stroke="none" d="M 24.824997 142 L 24.833336 142 C 28.511402 141.995499 31.491661 139.012451 31.491661 135.333328 C 31.491661 131.651428 28.506897 128.666672 24.824997 128.666672 L 24 128.666672 C 21.233334 128.666672 18.883331 127.691666 16.924999 125.741669 C 14.975002 123.791664 14 121.433334 14 118.666664 L 14 23.666672 C 13.955791 21.005539 15.014519 18.444687 16.924999 16.59166 C 18.883331 14.641663 21.233334 13.666672 24 13.666672 L 59 13.666672 L 59 43.666664 C 58.935936 47.657555 60.525482 51.497192 63.39167 54.275002 C 66.316658 57.208336 69.85833 58.666672 74 58.666672 L 104 58.666672 L 104 118.666664 C 104 121.433334 103.025009 123.791664 101.074997 125.741669 C 99.116669 127.691666 96.766678 128.666672 94 128.666672 L 93.166672 128.666672 C 89.484772 128.666672 86.5 131.651428 86.5 135.333328 C 86.5 139.015228 89.484772 142 93.166672 142 L 94 142 C 100.20755 142.097992 106.179337 139.624832 110.5 135.166656 C 115.058334 130.616669 117.333344 125.116661 117.333344 118.666664 L 117.333344 52 C 117.334717 50.231361 116.633255 48.534645 115.383331 47.283333 L 70.383331 2.28334 C 69.132011 1.033401 67.43531 0.33194 65.666672 0.333328 L 24 0.333328 C 17.79245 0.235352 11.820663 2.708511 7.5 7.166672 C 2.941669 11.725006 0.666664 17.225006 0.666664 23.666672 L 0.666664 118.666664 C 0.56868 124.874214 3.041843 130.846008 7.5 135.166656 C 11.820663 139.624832 17.79245 142.097992 24 142 L 24.824997 142 Z M 67.333336 78.666664 L 67.333336 77 C 67.333336 73.318108 70.3181 70.333328 74 70.333328 C 77.681892 70.333328 80.666672 73.318108 80.666672 77 L 80.666672 78.666664 L 82.333336 78.666664 C 86.015236 78.666664 89 81.651428 89 85.333328 C 89 89.015228 86.015236 92 82.333336 92 L 80.666672 92 L 80.666672 103.666672 L 82.333336 103.666672 C 86.015236 103.666672 89 106.651428 89 110.333328 C 89 114.015228 86.015236 117 82.333336 117 L 80.666672 117 L 80.666672 118.666664 C 80.666672 122.348564 77.681892 125.333336 74 125.333336 C 70.3181 125.333336 67.333336 122.348564 67.333336 118.666664 L 67.333336 117 L 55.666664 117 L 55.666664 118.666664 C 55.666664 122.348564 52.681892 125.333336 49 125.333336 C 45.3181 125.333336 42.333328 122.348564 42.333328 118.666664 L 42.333328 117 L 40.666664 117 C 36.984772 117 34 114.015228 34 110.333328 C 34 106.651428 36.984772 103.666672 40.666664 103.666672 L 42.333328 103.666672 L 42.333328 92 L 40.666664 92 C 36.984772 92 34 89.015228 34 85.333328 C 34 81.651428 36.984772 78.666664 40.666664 78.666664 L 42.333328 78.666664 L 42.333328 77 C 42.333328 73.318108 45.3181 70.333328 49 70.333328 C 52.681892 70.333328 55.666664 73.318108 55.666664 77 L 55.666664 78.666664 L 67.333336 78.666664 Z M 55.666664 92 L 55.666664 103.666672 L 67.333336 103.666672 L 67.333336 92 L 55.666664 92 Z M 72.816666 44.849998 C 72.5 44.525002 72.333336 44.133331 72.333336 43.666664 L 72.324997 43.674995 L 72.324997 23.09166 L 94.574997 45.333336 L 74 45.333336 C 73.541664 45.333336 73.150002 45.175003 72.816666 44.849998 Z"/>
</svg>
