<svg width="1024" height="1024" viewBox="0 0 1024 1024" version="1.1" xmlns="http://www.w3.org/2000/svg">
  <path d="M585.9 360.508c-11.205-7.214-24.265-9.175-36.311-6.467-11.933 2.625-22.872 9.842-30.002 20.94-7.144 11.176-9.126 24.156-6.46 36.156 2.618 12.001 9.804 23.02 20.96 30.156 46.286 29.687 73.912 80.038 73.912 134.707 0 42.743-16.646 82.9-46.865 113.136l-192.007 192c-30.207 30.196-70.391 46.862-113.129 46.862C167.782 927.998 96 856.193 96 768.001c0-42.747 16.637-82.903 46.862-113.137l91.07-91.099c9.597-9.568 14.283-22.236 14.066-34.823-0.215-11.96-4.911-23.882-14.066-33.058-9.374-9.374-21.658-14.039-33.934-14.039-12.304 0-24.576 4.665-33.941 14.039L74.98 586.982C26.617 635.295 0 699.609 0 768.003 0 909.136 114.843 1024 255.999 1024c68.393 0 132.668-26.626 181.009-75.019l192-192c48.364-48.313 74.99-112.629 74.99-180.978 0.001-87.532-44.146-168.08-118.098-215.495zM767.999 0c-68.393 0-132.675 26.63-181.017 74.982L394.98 266.98C346.619 315.293 320 379.609 320 447.962c0 87.53 44.138 168.077 118.087 215.526 11.209 7.18 24.265 9.138 36.316 6.432 11.94-2.627 22.871-9.803 30-20.941 7.156-11.178 9.127-24.157 6.472-36.157-2.628-11.998-9.816-23.021-20.971-30.158-46.275-29.685-73.903-80.037-73.903-134.704 0-42.747 16.637-82.902 46.862-113.1l192.009-191.997C685.077 112.628 725.266 96.001 768 96.001c88.217 0 160.001 71.764 160.001 159.962 0 42.745-16.648 82.902-46.862 113.136l-91.079 91.099c-9.597 9.608-14.274 22.235-14.059 34.825 0.218 11.998 4.902 23.88 14.059 33.058 9.373 9.372 21.657 14.039 33.942 14.039 12.294 0 24.578-4.668 33.931-14.039l91.08-91.099c48.36-48.316 74.987-112.628 74.987-181.02C1023.999 114.825 909.157 0 767.999 0z"></path>
</svg>