<svg width="1024" height="1024" viewBox="0 0 1024 1024" version="1.1" xmlns="http://www.w3.org/2000/svg">
  <path d="M680.3 799.2H480c-36.9 0-66.8-30-66.8-67v-400h-44.5v400c0 61.6 49.8 111.5 111.2 111.5h200.3v-44.5zM213 287.4h445V153.9H213v133.5z m-44.5 0V153.9c0-24.6 19.9-44.5 44.5-44.5h445c24.6 0 44.5 19.9 44.5 44.5v133.5c0 24.6-19.9 44.5-44.5 44.5H213c-24.6 0-44.5-19.9-44.5-44.5z M368.8 532.2h311.5v-44.5H368.8z m489.5 289.2c0 61.4-49.8 111.2-111.2 111.2s-111.2-49.8-111.2-111.2 49.8-111.2 111.2-111.2S858.3 760 858.3 821.4z m-44.5 0c0-36.9-29.9-66.8-66.8-66.8s-66.8 29.9-66.8 66.8 29.9 66.8 66.8 66.8 66.8-29.9 66.8-66.8z M858.3 509.9c0 61.4-49.8 111.2-111.2 111.2s-111.2-49.8-111.2-111.2 49.8-111.2 111.2-111.2 111.2 49.8 111.2 111.2z m-44.5 0c0-36.9-29.9-66.8-66.8-66.8s-66.8 29.9-66.8 66.8 29.9 66.8 66.8 66.8 66.8-29.9 66.8-66.8z"></path>
</svg>